<svg width="233" height="26" viewBox="0 0 233 26" fill="none" xmlns="http://www.w3.org/2000/svg">
<path d="M13.607 0.884C13.535 1.568 13.481 2.234 13.445 2.882C13.427 3.512 13.418 3.998 13.418 4.34C13.418 4.772 13.427 5.177 13.445 5.555C13.463 5.933 13.481 6.266 13.499 6.554H12.878C12.752 5.294 12.581 4.304 12.365 3.584C12.149 2.846 11.771 2.315 11.231 1.991C10.691 1.667 9.854 1.505 8.72 1.505H7.019C6.407 1.505 5.939 1.559 5.615 1.667C5.309 1.757 5.102 1.964 4.994 2.288C4.886 2.594 4.832 3.08 4.832 3.746V17.138C4.832 17.786 4.895 18.272 5.021 18.596C5.165 18.92 5.435 19.136 5.831 19.244C6.227 19.352 6.803 19.424 7.559 19.46V20C7.091 19.964 6.497 19.946 5.777 19.946C5.057 19.928 4.328 19.919 3.59 19.919C2.888 19.919 2.231 19.928 1.619 19.946C1.007 19.946 0.512 19.964 0.134 20V19.46C0.746 19.424 1.205 19.352 1.511 19.244C1.835 19.136 2.051 18.92 2.159 18.596C2.267 18.272 2.321 17.786 2.321 17.138V3.746C2.321 3.08 2.267 2.594 2.159 2.288C2.051 1.964 1.835 1.748 1.511 1.64C1.205 1.514 0.746 1.442 0.134 1.424V0.884C0.8 0.902 1.502 0.919999 2.24 0.937999C2.978 0.937999 3.707 0.946999 4.427 0.964999C5.147 0.964999 5.813 0.964999 6.425 0.964999C7.055 0.964999 7.568 0.964999 7.964 0.964999C8.792 0.964999 9.728 0.964999 10.772 0.964999C11.834 0.946999 12.779 0.919999 13.607 0.884ZM9.422 10.388C9.422 10.388 9.422 10.478 9.422 10.658C9.422 10.838 9.422 10.928 9.422 10.928H4.022C4.022 10.928 4.022 10.838 4.022 10.658C4.022 10.478 4.022 10.388 4.022 10.388H9.422ZM9.935 6.824C9.863 7.85 9.827 8.633 9.827 9.173C9.845 9.713 9.854 10.208 9.854 10.658C9.854 11.108 9.863 11.603 9.881 12.143C9.899 12.683 9.944 13.466 10.016 14.492H9.395C9.323 13.916 9.233 13.358 9.125 12.818C9.035 12.26 8.819 11.81 8.477 11.468C8.153 11.108 7.595 10.928 6.803 10.928V10.388C7.397 10.388 7.847 10.271 8.153 10.037C8.477 9.785 8.711 9.47 8.855 9.092C8.999 8.714 9.098 8.327 9.152 7.931C9.206 7.517 9.26 7.148 9.314 6.824H9.935ZM28.9791 0.884C28.9071 1.514 28.8531 2.126 28.8171 2.72C28.7991 3.314 28.7901 3.764 28.7901 4.07C28.7901 4.394 28.7991 4.709 28.8171 5.015C28.8351 5.303 28.8531 5.546 28.8711 5.744H28.2501C28.1421 4.682 27.9891 3.845 27.7911 3.233C27.5931 2.603 27.2511 2.162 26.7651 1.91C26.2971 1.64 25.5861 1.505 24.6321 1.505H22.3911C21.7791 1.505 21.3111 1.559 20.9871 1.667C20.6811 1.757 20.4741 1.964 20.3661 2.288C20.2581 2.594 20.2041 3.08 20.2041 3.746V17.138C20.2041 17.786 20.2581 18.272 20.3661 18.596C20.4741 18.92 20.6811 19.136 20.9871 19.244C21.3111 19.334 21.7791 19.379 22.3911 19.379H24.3621C25.4961 19.379 26.3511 19.226 26.9271 18.92C27.5211 18.614 27.9441 18.119 28.1961 17.435C28.4661 16.733 28.6641 15.788 28.7901 14.6H29.4111C29.3571 15.086 29.3301 15.734 29.3301 16.544C29.3301 16.886 29.3391 17.381 29.3571 18.029C29.3931 18.659 29.4471 19.316 29.5191 20C28.6011 19.964 27.5661 19.946 26.4141 19.946C25.2621 19.928 24.2361 19.919 23.3361 19.919C22.9401 19.919 22.4271 19.919 21.7971 19.919C21.1851 19.919 20.5191 19.928 19.7991 19.946C19.0791 19.946 18.3501 19.955 17.6121 19.973C16.8741 19.973 16.1721 19.982 15.5061 20V19.46C16.1181 19.424 16.5771 19.352 16.8831 19.244C17.2071 19.136 17.4231 18.92 17.5311 18.596C17.6391 18.272 17.6931 17.786 17.6931 17.138V3.746C17.6931 3.08 17.6391 2.594 17.5311 2.288C17.4231 1.964 17.2071 1.748 16.8831 1.64C16.5771 1.514 16.1181 1.442 15.5061 1.424V0.884C16.1721 0.902 16.8741 0.919999 17.6121 0.937999C18.3501 0.937999 19.0791 0.946999 19.7991 0.964999C20.5191 0.964999 21.1851 0.964999 21.7971 0.964999C22.4271 0.964999 22.9401 0.964999 23.3361 0.964999C24.1641 0.964999 25.1001 0.964999 26.1441 0.964999C27.2061 0.946999 28.1511 0.919999 28.9791 0.884ZM24.3351 10.118C24.3351 10.118 24.3351 10.208 24.3351 10.388C24.3351 10.568 24.3351 10.658 24.3351 10.658H19.3941C19.3941 10.658 19.3941 10.568 19.3941 10.388C19.3941 10.208 19.3941 10.118 19.3941 10.118H24.3351ZM25.1181 6.554C25.0461 7.58 25.0101 8.363 25.0101 8.903C25.0281 9.443 25.0371 9.938 25.0371 10.388C25.0371 10.838 25.0461 11.333 25.0641 11.873C25.0821 12.413 25.1271 13.196 25.1991 14.222H24.5781C24.5061 13.646 24.4161 13.088 24.3081 12.548C24.2181 11.99 24.0021 11.54 23.6601 11.198C23.3361 10.838 22.7781 10.658 21.9861 10.658V10.118C22.5801 10.118 23.0301 10.001 23.3361 9.767C23.6601 9.515 23.8941 9.2 24.0381 8.822C24.1821 8.444 24.2811 8.057 24.3351 7.661C24.3891 7.247 24.4431 6.878 24.4971 6.554H25.1181ZM31.9592 0.884C32.3372 0.902 32.8322 0.919999 33.4442 0.937999C34.0562 0.955999 34.6592 0.964999 35.2532 0.964999C36.0992 0.964999 36.9092 0.955999 37.6832 0.937999C38.4572 0.919999 39.0062 0.911 39.3302 0.911C40.7882 0.911 41.9942 1.118 42.9482 1.532C43.9202 1.946 44.6402 2.513 45.1082 3.233C45.5942 3.935 45.8372 4.727 45.8372 5.609C45.8372 6.149 45.7292 6.725 45.5132 7.337C45.2972 7.949 44.9192 8.525 44.3792 9.065C43.8572 9.605 43.1372 10.055 42.2192 10.415C41.3012 10.757 40.1402 10.928 38.7362 10.928H36.1442V10.388H38.4662C39.7442 10.388 40.7162 10.19 41.3822 9.794C42.0662 9.38 42.5252 8.84 42.7592 8.174C43.0112 7.49 43.1372 6.734 43.1372 5.906C43.1372 4.484 42.7952 3.386 42.1112 2.612C41.4452 1.82 40.2932 1.424 38.6552 1.424C37.8272 1.424 37.2872 1.577 37.0352 1.883C36.7832 2.189 36.6572 2.81 36.6572 3.746V17.138C36.6572 17.786 36.7112 18.272 36.8192 18.596C36.9272 18.92 37.1342 19.136 37.4402 19.244C37.7642 19.352 38.2322 19.424 38.8442 19.46V20C38.4302 19.964 37.9082 19.946 37.2782 19.946C36.6662 19.928 36.0452 19.919 35.4152 19.919C34.7132 19.919 34.0562 19.928 33.4442 19.946C32.8322 19.946 32.3372 19.964 31.9592 20V19.46C32.5712 19.424 33.0302 19.352 33.3362 19.244C33.6602 19.136 33.8762 18.92 33.9842 18.596C34.0922 18.272 34.1462 17.786 34.1462 17.138V3.746C34.1462 3.08 34.0922 2.594 33.9842 2.288C33.8762 1.964 33.6602 1.748 33.3362 1.64C33.0302 1.514 32.5712 1.442 31.9592 1.424V0.884ZM36.2522 10.469C37.2242 10.505 37.9892 10.55 38.5472 10.604C39.1052 10.64 39.5552 10.676 39.8972 10.712C40.2572 10.748 40.5992 10.793 40.9232 10.847C42.1292 11.045 42.9932 11.414 43.5152 11.954C44.0552 12.476 44.4512 13.295 44.7032 14.411L45.3782 17.165C45.5582 17.957 45.7382 18.533 45.9182 18.893C46.1162 19.235 46.4132 19.397 46.8092 19.379C47.1152 19.361 47.3672 19.262 47.5652 19.082C47.7812 18.902 48.0062 18.659 48.2402 18.353L48.6452 18.65C48.2672 19.208 47.8712 19.64 47.4572 19.946C47.0612 20.234 46.4942 20.378 45.7562 20.378C45.0902 20.378 44.5052 20.18 44.0012 19.784C43.4972 19.388 43.1192 18.614 42.8672 17.462L42.2732 14.762C42.1112 13.988 41.9222 13.322 41.7062 12.764C41.5082 12.188 41.2202 11.738 40.8422 11.414C40.4822 11.09 39.9422 10.928 39.2222 10.928H36.3062L36.2522 10.469ZM66.423 0.884V1.424C65.811 1.442 65.343 1.532 65.019 1.694C64.713 1.856 64.506 2.117 64.398 2.477C64.29 2.837 64.236 3.35 64.236 4.016V20.135C64.128 20.135 64.02 20.135 63.912 20.135C63.822 20.135 63.723 20.135 63.615 20.135L52.275 2.612V16.868C52.275 17.516 52.329 18.029 52.437 18.407C52.563 18.767 52.797 19.028 53.139 19.19C53.499 19.334 54.03 19.424 54.732 19.46V20C54.408 19.964 53.985 19.946 53.463 19.946C52.941 19.928 52.446 19.919 51.978 19.919C51.528 19.919 51.069 19.928 50.601 19.946C50.151 19.946 49.773 19.964 49.467 20V19.46C50.079 19.424 50.538 19.334 50.844 19.19C51.168 19.028 51.384 18.767 51.492 18.407C51.6 18.029 51.654 17.516 51.654 16.868V3.746C51.654 3.08 51.6 2.594 51.492 2.288C51.384 1.964 51.168 1.748 50.844 1.64C50.538 1.514 50.079 1.442 49.467 1.424V0.884C49.773 0.902 50.151 0.919999 50.601 0.937999C51.069 0.955999 51.528 0.964999 51.978 0.964999C52.374 0.964999 52.752 0.955999 53.112 0.937999C53.472 0.919999 53.796 0.902 54.084 0.884L63.615 15.572V4.016C63.615 3.35 63.552 2.837 63.426 2.477C63.318 2.117 63.084 1.856 62.724 1.694C62.382 1.532 61.86 1.442 61.158 1.424V0.884C61.482 0.902 61.905 0.919999 62.427 0.937999C62.967 0.955999 63.462 0.964999 63.912 0.964999C64.38 0.964999 64.839 0.955999 65.289 0.937999C65.757 0.919999 66.135 0.902 66.423 0.884ZM75.9593 0.748998L82.5473 17.732C82.8173 18.416 83.1233 18.875 83.4653 19.109C83.8073 19.325 84.1223 19.442 84.4103 19.46V20C84.0503 19.964 83.6093 19.946 83.0873 19.946C82.5653 19.928 82.0433 19.919 81.5213 19.919C80.8193 19.919 80.1623 19.928 79.5503 19.946C78.9383 19.946 78.4433 19.964 78.0653 20V19.46C78.9833 19.424 79.5683 19.271 79.8203 19.001C80.0723 18.713 80.0183 18.11 79.6583 17.192L74.6363 3.773L75.0683 3.422L70.3703 15.626C70.0823 16.346 69.9113 16.958 69.8573 17.462C69.8033 17.948 69.8483 18.335 69.9923 18.623C70.1543 18.911 70.4153 19.118 70.7753 19.244C71.1533 19.37 71.6213 19.442 72.1793 19.46V20C71.6753 19.964 71.1443 19.946 70.5863 19.946C70.0463 19.928 69.5423 19.919 69.0743 19.919C68.6243 19.919 68.2373 19.928 67.9133 19.946C67.6073 19.946 67.3193 19.964 67.0493 20V19.46C67.4093 19.37 67.7783 19.163 68.1563 18.839C68.5343 18.497 68.8763 17.921 69.1823 17.111L75.5273 0.748998C75.5993 0.748998 75.6713 0.748998 75.7433 0.748998C75.8153 0.748998 75.8873 0.748998 75.9593 0.748998ZM79.2533 12.224V12.764H71.2073L71.4773 12.224H79.2533ZM101.808 0.884V1.424C101.196 1.442 100.728 1.532 100.404 1.694C100.098 1.856 99.8908 2.117 99.7828 2.477C99.6748 2.837 99.6208 3.35 99.6208 4.016V20.135C99.5128 20.135 99.4048 20.135 99.2968 20.135C99.2068 20.135 99.1078 20.135 98.9998 20.135L87.6598 2.612V16.868C87.6598 17.516 87.7138 18.029 87.8218 18.407C87.9478 18.767 88.1818 19.028 88.5238 19.19C88.8838 19.334 89.4148 19.424 90.1168 19.46V20C89.7928 19.964 89.3698 19.946 88.8478 19.946C88.3258 19.928 87.8308 19.919 87.3628 19.919C86.9128 19.919 86.4538 19.928 85.9858 19.946C85.5358 19.946 85.1578 19.964 84.8518 20V19.46C85.4638 19.424 85.9228 19.334 86.2288 19.19C86.5528 19.028 86.7688 18.767 86.8768 18.407C86.9848 18.029 87.0388 17.516 87.0388 16.868V3.746C87.0388 3.08 86.9848 2.594 86.8768 2.288C86.7688 1.964 86.5528 1.748 86.2288 1.64C85.9228 1.514 85.4638 1.442 84.8518 1.424V0.884C85.1578 0.902 85.5358 0.919999 85.9858 0.937999C86.4538 0.955999 86.9128 0.964999 87.3628 0.964999C87.7588 0.964999 88.1368 0.955999 88.4968 0.937999C88.8568 0.919999 89.1808 0.902 89.4688 0.884L98.9998 15.572V4.016C98.9998 3.35 98.9368 2.837 98.8108 2.477C98.7028 2.117 98.4688 1.856 98.1088 1.694C97.7668 1.532 97.2448 1.442 96.5428 1.424V0.884C96.8668 0.902 97.2898 0.919999 97.8118 0.937999C98.3518 0.955999 98.8468 0.964999 99.2968 0.964999C99.7648 0.964999 100.224 0.955999 100.674 0.937999C101.142 0.919999 101.52 0.902 101.808 0.884ZM111.286 0.884C114.508 0.884 116.902 1.694 118.468 3.314C120.034 4.916 120.817 7.22 120.817 10.226C120.817 12.188 120.43 13.907 119.656 15.383C118.9 16.841 117.793 17.975 116.335 18.785C114.877 19.595 113.113 20 111.043 20C110.773 20 110.413 19.991 109.963 19.973C109.513 19.955 109.045 19.946 108.559 19.946C108.091 19.928 107.659 19.919 107.263 19.919C106.633 19.919 106.012 19.928 105.4 19.946C104.788 19.946 104.293 19.964 103.915 20V19.46C104.527 19.424 104.986 19.352 105.292 19.244C105.616 19.136 105.832 18.92 105.94 18.596C106.048 18.272 106.102 17.786 106.102 17.138V3.746C106.102 3.08 106.048 2.594 105.94 2.288C105.832 1.964 105.616 1.748 105.292 1.64C104.986 1.514 104.527 1.442 103.915 1.424V0.884C104.293 0.902 104.788 0.928999 105.4 0.964999C106.012 0.982999 106.615 0.982999 107.209 0.964999C107.839 0.946999 108.55 0.928999 109.342 0.911C110.134 0.893 110.782 0.884 111.286 0.884ZM110.611 1.37C109.783 1.37 109.243 1.523 108.991 1.829C108.739 2.135 108.613 2.756 108.613 3.692V17.192C108.613 18.128 108.739 18.749 108.991 19.055C109.261 19.361 109.81 19.514 110.638 19.514C112.6 19.514 114.121 19.163 115.201 18.461C116.281 17.741 117.037 16.697 117.469 15.329C117.901 13.961 118.117 12.296 118.117 10.334C118.117 8.318 117.874 6.653 117.388 5.339C116.92 4.007 116.137 3.017 115.039 2.369C113.959 1.703 112.483 1.37 110.611 1.37ZM132.31 0.505998C134.02 0.505998 135.514 0.892999 136.792 1.667C138.088 2.441 139.087 3.557 139.789 5.015C140.509 6.455 140.869 8.21 140.869 10.28C140.869 12.296 140.5 14.06 139.762 15.572C139.042 17.084 138.034 18.263 136.738 19.109C135.442 19.955 133.957 20.378 132.283 20.378C130.573 20.378 129.07 19.991 127.774 19.217C126.496 18.443 125.497 17.327 124.777 15.869C124.075 14.411 123.724 12.656 123.724 10.604C123.724 8.588 124.093 6.824 124.831 5.312C125.569 3.8 126.577 2.621 127.855 1.775C129.151 0.928999 130.636 0.505998 132.31 0.505998ZM132.202 0.991998C131.032 0.991998 130.015 1.397 129.151 2.207C128.287 3.017 127.612 4.133 127.126 5.555C126.658 6.977 126.424 8.624 126.424 10.496C126.424 12.404 126.685 14.069 127.207 15.491C127.747 16.895 128.467 17.984 129.367 18.758C130.285 19.514 131.293 19.892 132.391 19.892C133.561 19.892 134.578 19.487 135.442 18.677C136.306 17.867 136.972 16.751 137.44 15.329C137.926 13.889 138.169 12.242 138.169 10.388C138.169 8.462 137.899 6.797 137.359 5.393C136.837 3.989 136.126 2.909 135.226 2.153C134.326 1.379 133.318 0.991998 132.202 0.991998ZM174.328 0.884V1.424C173.788 1.442 173.374 1.514 173.086 1.64C172.816 1.748 172.636 1.964 172.546 2.288C172.456 2.594 172.411 3.08 172.411 3.746V17.138C172.411 17.786 172.456 18.272 172.546 18.596C172.654 18.92 172.843 19.136 173.113 19.244C173.383 19.352 173.788 19.424 174.328 19.46V20C173.77 19.964 173.059 19.946 172.195 19.946C171.331 19.928 170.449 19.919 169.549 19.919C168.577 19.919 167.659 19.928 166.795 19.946C165.949 19.946 165.265 19.964 164.743 20V19.46C165.355 19.424 165.814 19.352 166.12 19.244C166.444 19.136 166.66 18.92 166.768 18.596C166.876 18.272 166.93 17.786 166.93 17.138V2.693L167.2 2.639L160.423 19.973H159.991L152.377 2.639V14.708C152.377 15.914 152.422 16.841 152.512 17.489C152.62 18.119 152.863 18.578 153.241 18.866C153.637 19.136 154.258 19.334 155.104 19.46V20C154.744 19.964 154.276 19.946 153.7 19.946C153.124 19.928 152.584 19.919 152.08 19.919C151.684 19.919 151.279 19.928 150.865 19.946C150.451 19.946 150.109 19.964 149.839 20V19.46C150.397 19.334 150.811 19.145 151.081 18.893C151.351 18.623 151.531 18.2 151.621 17.624C151.711 17.048 151.756 16.256 151.756 15.248V3.746C151.756 3.08 151.711 2.594 151.621 2.288C151.531 1.964 151.342 1.748 151.054 1.64C150.784 1.514 150.379 1.442 149.839 1.424V0.884C150.109 0.902 150.451 0.919999 150.865 0.937999C151.279 0.955999 151.684 0.964999 152.08 0.964999C153.124 0.964999 154.123 0.955999 155.077 0.937999C156.031 0.919999 156.895 0.902 157.669 0.884L163.015 12.926L162.205 13.817L167.2 0.964999C167.56 0.964999 167.947 0.964999 168.361 0.964999C168.775 0.964999 169.171 0.964999 169.549 0.964999C170.449 0.964999 171.331 0.955999 172.195 0.937999C173.059 0.919999 173.77 0.902 174.328 0.884ZM190.929 0.884C190.857 1.784 190.803 2.657 190.767 3.503C190.749 4.331 190.74 4.97 190.74 5.42C190.74 5.798 190.749 6.158 190.767 6.5C190.785 6.842 190.803 7.13 190.821 7.364H190.2C189.984 5.87 189.624 4.7 189.12 3.854C188.616 2.99 188.022 2.387 187.338 2.045C186.672 1.685 185.97 1.505 185.232 1.505H184.881C184.413 1.505 184.062 1.55 183.828 1.64C183.594 1.712 183.432 1.865 183.342 2.099C183.27 2.333 183.234 2.702 183.234 3.206V17.678C183.234 18.164 183.27 18.533 183.342 18.785C183.432 19.019 183.594 19.181 183.828 19.271C184.062 19.343 184.413 19.379 184.881 19.379H185.772C186.366 19.379 186.987 19.19 187.635 18.812C188.301 18.416 188.913 17.75 189.471 16.814C190.029 15.878 190.452 14.6 190.74 12.98H191.361C191.307 13.628 191.28 14.456 191.28 15.464C191.28 15.914 191.289 16.562 191.307 17.408C191.325 18.236 191.379 19.1 191.469 20C190.551 19.964 189.516 19.946 188.364 19.946C187.212 19.928 186.186 19.919 185.286 19.919C184.8 19.919 184.179 19.919 183.423 19.919C182.685 19.919 181.875 19.928 180.993 19.946C180.129 19.946 179.247 19.955 178.347 19.973C177.465 19.973 176.628 19.982 175.836 20V19.46C176.394 19.424 176.808 19.352 177.078 19.244C177.348 19.136 177.528 18.92 177.618 18.596C177.708 18.272 177.753 17.786 177.753 17.138V3.746C177.753 3.08 177.708 2.594 177.618 2.288C177.528 1.964 177.339 1.748 177.051 1.64C176.781 1.514 176.376 1.442 175.836 1.424V0.884C176.628 0.902 177.465 0.919999 178.347 0.937999C179.247 0.937999 180.129 0.946999 180.993 0.964999C181.875 0.964999 182.685 0.964999 183.423 0.964999C184.179 0.964999 184.8 0.964999 185.286 0.964999C186.114 0.964999 187.05 0.964999 188.094 0.964999C189.156 0.946999 190.101 0.919999 190.929 0.884ZM187.014 10.118C187.014 10.118 187.014 10.208 187.014 10.388C187.014 10.568 187.014 10.658 187.014 10.658H182.424C182.424 10.658 182.424 10.568 182.424 10.388C182.424 10.208 182.424 10.118 182.424 10.118H187.014ZM187.797 6.554C187.725 7.58 187.689 8.363 187.689 8.903C187.707 9.443 187.716 9.938 187.716 10.388C187.716 10.838 187.725 11.333 187.743 11.873C187.761 12.413 187.806 13.196 187.878 14.222H187.257C187.149 13.556 186.924 12.953 186.582 12.413C186.258 11.873 185.835 11.45 185.313 11.144C184.791 10.82 184.188 10.658 183.504 10.658V10.118C184.008 10.118 184.467 10.01 184.881 9.794C185.295 9.578 185.655 9.29 185.961 8.93C186.285 8.57 186.546 8.183 186.744 7.769C186.96 7.355 187.104 6.95 187.176 6.554H187.797ZM191.966 25.076V24.509C192.614 24.419 193.181 24.203 193.667 23.861C194.153 23.537 194.522 22.952 194.774 22.106C195.044 21.278 195.179 20.081 195.179 18.515V3.746C195.179 3.08 195.134 2.594 195.044 2.288C194.954 1.964 194.765 1.748 194.477 1.64C194.207 1.514 193.802 1.442 193.262 1.424V0.884C193.748 0.902 194.396 0.919999 195.206 0.937999C196.016 0.955999 196.871 0.964999 197.771 0.964999C198.671 0.964999 199.553 0.955999 200.417 0.937999C201.299 0.919999 202.019 0.902 202.577 0.884V1.424C202.037 1.442 201.623 1.514 201.335 1.64C201.065 1.748 200.885 1.964 200.795 2.288C200.705 2.594 200.66 3.08 200.66 3.746V13.628C200.66 14.366 200.66 15.167 200.66 16.031C200.678 16.877 200.651 17.705 200.579 18.515C200.525 19.325 200.399 20.045 200.201 20.675C199.805 21.917 198.932 22.961 197.582 23.807C196.232 24.653 194.36 25.076 191.966 25.076ZM213.232 0.884V1.424C212.692 1.442 212.278 1.514 211.99 1.64C211.72 1.748 211.54 1.964 211.45 2.288C211.36 2.594 211.315 3.08 211.315 3.746V17.138C211.315 17.786 211.36 18.272 211.45 18.596C211.558 18.92 211.747 19.136 212.017 19.244C212.287 19.352 212.692 19.424 213.232 19.46V20C212.71 19.964 212.035 19.946 211.207 19.946C210.397 19.928 209.569 19.919 208.723 19.919C207.751 19.919 206.833 19.928 205.969 19.946C205.123 19.946 204.439 19.964 203.917 20V19.46C204.475 19.424 204.889 19.352 205.159 19.244C205.429 19.136 205.609 18.92 205.699 18.596C205.789 18.272 205.834 17.786 205.834 17.138V3.746C205.834 3.08 205.789 2.594 205.699 2.288C205.609 1.964 205.42 1.748 205.132 1.64C204.862 1.514 204.457 1.442 203.917 1.424V0.884C204.439 0.902 205.123 0.919999 205.969 0.937999C206.833 0.955999 207.751 0.964999 208.723 0.964999C209.569 0.964999 210.397 0.955999 211.207 0.937999C212.035 0.919999 212.71 0.902 213.232 0.884ZM224.744 0.884L231.278 17.732C231.53 18.344 231.8 18.785 232.088 19.055C232.376 19.307 232.637 19.442 232.871 19.46V20C232.223 19.964 231.467 19.946 230.603 19.946C229.739 19.928 228.857 19.919 227.957 19.919C227.039 19.919 226.175 19.928 225.365 19.946C224.555 19.946 223.907 19.964 223.421 20V19.46C224.339 19.424 224.915 19.271 225.149 19.001C225.401 18.713 225.347 18.11 224.987 17.192L220.667 5.231L221.207 4.286L217.481 13.979C217.031 15.149 216.752 16.094 216.644 16.814C216.554 17.516 216.599 18.056 216.779 18.434C216.959 18.812 217.247 19.073 217.643 19.217C218.039 19.361 218.507 19.442 219.047 19.46V20C218.381 19.964 217.778 19.946 217.238 19.946C216.716 19.928 216.14 19.919 215.51 19.919C215.168 19.919 214.799 19.928 214.403 19.946C214.025 19.946 213.701 19.964 213.431 20V19.46C213.845 19.388 214.25 19.127 214.646 18.677C215.06 18.209 215.483 17.417 215.915 16.301L221.909 0.884C222.341 0.919999 222.809 0.937999 223.313 0.937999C223.835 0.937999 224.312 0.919999 224.744 0.884ZM225.689 12.224V12.764H217.643L217.913 12.224H225.689Z" fill="black"/>
</svg>
