<svg width="37" height="23" viewBox="0 0 37 23" fill="none" xmlns="http://www.w3.org/2000/svg">
<path d="M28.11 0.76V1.36C27.51 1.38 27.05 1.46 26.73 1.6C26.43 1.72 26.23 1.96 26.13 2.32C26.03 2.66 25.98 3.2 25.98 3.94V18.82C25.98 19.54 26.03 20.08 26.13 20.44C26.25 20.8 26.46 21.04 26.76 21.16C27.06 21.28 27.51 21.36 28.11 21.4V22C27.49 21.96 26.7 21.94 25.74 21.94C24.78 21.92 23.8 21.91 22.8 21.91C21.72 21.91 20.7 21.92 19.74 21.94C18.8 21.94 18.04 21.96 17.46 22V21.4C18.14 21.36 18.65 21.28 18.99 21.16C19.35 21.04 19.59 20.8 19.71 20.44C19.83 20.08 19.89 19.54 19.89 18.82V2.77L20.19 2.71L12.66 21.97H12.18L3.72 2.71V16.12C3.72 17.46 3.77 18.49 3.87 19.21C3.99 19.91 4.26 20.42 4.68 20.74C5.12 21.04 5.81 21.26 6.75 21.4V22C6.35 21.96 5.83 21.94 5.19 21.94C4.55 21.92 3.95 21.91 3.39 21.91C2.95 21.91 2.5 21.92 2.04 21.94C1.58 21.94 1.2 21.96 0.9 22V21.4C1.52 21.26 1.98 21.05 2.28 20.77C2.58 20.47 2.78 20 2.88 19.36C2.98 18.72 3.03 17.84 3.03 16.72V3.94C3.03 3.2 2.98 2.66 2.88 2.32C2.78 1.96 2.57 1.72 2.25 1.6C1.95 1.46 1.5 1.38 0.9 1.36V0.76C1.2 0.78 1.58 0.799999 2.04 0.819999C2.5 0.839999 2.95 0.849999 3.39 0.849999C4.55 0.849999 5.66 0.839999 6.72 0.819999C7.78 0.799999 8.74 0.78 9.6 0.76L15.54 14.14L14.64 15.13L20.19 0.849999C20.59 0.849999 21.02 0.849999 21.48 0.849999C21.94 0.849999 22.38 0.849999 22.8 0.849999C23.8 0.849999 24.78 0.839999 25.74 0.819999C26.7 0.799999 27.49 0.78 28.11 0.76ZM33.1753 17.26C34.1153 17.26 34.8453 17.48 35.3653 17.92C35.8853 18.34 36.1453 18.98 36.1453 19.84C36.1453 20.7 35.8853 21.35 35.3653 21.79C34.8453 22.21 34.1153 22.42 33.1753 22.42C32.2153 22.42 31.4753 22.21 30.9553 21.79C30.4553 21.35 30.2053 20.7 30.2053 19.84C30.2053 18.98 30.4553 18.34 30.9553 17.92C31.4753 17.48 32.2153 17.26 33.1753 17.26Z" fill="white"/>
</svg>
