<svg xmlns="http://www.w3.org/2000/svg" viewBox="0 0 571.8 376.66"><defs><style>.cls-1{fill:none;stroke:#1d1d1b;stroke-miterlimit:10;}.cls-2{fill:#1d1d1b;}</style></defs><g id="Layer_3" data-name="Layer 3"><polygon class="cls-1" points="137.07 215.11 128.9 205.49 111.65 189.76 93.44 177.05 94.12 157.03 83.88 142.2 75.72 132.33 63.74 133.52 52.61 125.69 39.42 113.91 54.41 112.67 58.23 101.6 45.99 86.8 31.78 74.02 21.51 57.18 15.24 40.28 9.02 26.38 0.78 11.51 26.71 7.09 41.71 6.86 77.94 21.28 113.18 35.72 166.17 34.87 166 23.87 199.01 24.34 220.28 41 236.56 58.74 240.84 75.68 264.96 83.29 283.72 67.99 308.33 79.63 326.04 103.82 337.41 131.88 355.75 142.88 373.58 154.27 365.02 175.11 362.53 204.52 365.91 230.5 377.19 257 391.17 282.25 413.84 296.28 427.93 309.28 448.87 303.01 473.78 298.28 485.7 293.13 495.76 283.54 501.38 263.67 504.06 246.36 523.26 243.08 545.97 236.01 567.72 239.41 569.86 250.27 557.6 268.7 557.87 285.51 539.8 295.23 527.3 310.65 492.01 317.15 486.22 325.78 486.56 347.12 471.81 360.16 461.72 370.91 446.76 356.46 425.54 345.13 400.22 354.24 364.84 349.07 340.75 340.56 316.13 331.47 296.42 323.24 283.97 308.62 257.74 306.07 235.28 290.68 223.81 277.01 217.69 265.25 223.34 247.88 213.98 218.9 189.71 196.05 172.46 176.75 150.93 149.13 132.73 129.45 121.49 117.63 111.33 105.25 98.08 91.93 82.7 68.21 77.42 53.32 75.27 39.29 57.11 31.54 38.99 21.9 42.27 39.81 48.57 60.75 58.8 74.59 67.03 89.46 80.21 100.25 88.54 121.12 98.8 136.96 108.99 148.8 114.25 164.71 118.41 174.65 122.55 183.58 133.71 193.41 143.9 205.25 137.07 215.11"/></g><g id="Layer_5" data-name="Layer 5"><line class="cls-1" x1="133.65" y1="190.96" x2="111.65" y2="186.96"/><polyline class="cls-1" points="114.64 161.97 94.64 153.97 99.64 133.97 76.64 128.97"/><line class="cls-1" x1="68.65" y1="85.96" x2="47.65" y2="82.96"/><polyline class="cls-1" points="17.64 35.97 89.64 117.97 55.65 108.97"/><line class="cls-1" x1="50.65" y1="56.96" x2="3.65" y2="6.96"/><line class="cls-1" x1="29.65" y1="2.96" x2="33.65" y2="69.96"/></g><g id="Layer_4" data-name="Layer 4"><polyline class="cls-1" points="136.66 212.72 143.65 202.97 128.65 202.97 122.64 180.97 118.64 171.97 93.64 173.97 114.64 161.97 111.64 186.97"/><line class="cls-1" x1="133.65" y1="190.96" x2="128.65" y2="202.96"/><polyline class="cls-1" points="93.64 173.97 109.64 145.97 84.64 138.97 89.64 117.97 76.64 128.97 64.64 129.97 81.64 96.97 55.65 108.97 53.65 121.97 92.61 117.97"/><path class="cls-1" d="M75.24,333.78" transform="translate(-12.63 -235.82)"/><polyline class="cls-1" points="89.64 117.97 3.65 6.96 41.68 17.96"/><polyline class="cls-1" points="68.64 85.97 59.65 97.97 81.64 96.97 47.65 82.97 60.65 70.97 33.65 69.97 50.65 56.97 23.64 52.97 44.68 35.93 17.64 35.97 29.64 2.96 41.68 17.96 11.64 21.96"/><polyline class="cls-1" points="44.65 2.96 59.65 27.89 84.67 65 168.65 95 115.64 32.97 242.65 74.97 198.68 166.59 189.6 194.51 238.65 126 266.64 82.97 327.39 104.47"/><path class="cls-1" d="M57.31,271.75" transform="translate(-12.63 -235.82)"/><polyline class="cls-1" points="41.68 17.96 80.64 17.96 77.68 35.93 338.3 132.71 362.26 205.74 282.04 308.56 344.23 281.93 365.22 231.76 304.14 226.63 233.65 289.85"/><polyline class="cls-1" points="310.07 80 213.5 217.74 269.61 179.34 248.57 223.67 304.14 226.63 307.1 145.97 321.46 188.09 362.26 205.74"/><line class="cls-1" x1="189.6" y1="194.51" x2="268.84" y2="180.96"/><polyline class="cls-1" points="305.98 146.97 285.64 67.97 269.61 179.34 307.1 145.97 338.3 132.71"/><polyline class="cls-1" points="238.65 126 168.65 32.97 122.64 115"/><polyline class="cls-1" points="115.64 32.97 112.68 102.47 169.67 95 133.69 127 168.65 124.93 151.57 146.97 197.72 166.59"/><polyline class="cls-1" points="81.68 17.96 168.65 124.93 266.64 82.97"/><line class="cls-1" x1="198.68" y1="166.59" x2="172.66" y2="174.93"/><line class="cls-1" x1="169.69" y1="124.93" x2="197.72" y2="164.93"/><line class="cls-1" x1="169.69" y1="95.91" x2="236.83" y2="127"/><polyline class="cls-1" points="169.69 94 222.65 39.97 202.34 23.52 112.68 102.47"/><polyline class="cls-1" points="168.65 21.96 239.68 57.97 202.34 23.52 198.68 164.93"/><polyline class="cls-1" points="114.64 32.97 99.64 87.62 238.65 57.97"/><polyline class="cls-1" points="169.67 95 241.61 74.97 268.06 177.89 239.68 126"/><line class="cls-1" x1="174.16" y1="176.38" x2="363.2" y2="229.6"/><line class="cls-1" x1="306.74" y1="225.21" x2="360.43" y2="208.08"/><line class="cls-1" x1="321.46" y1="189.2" x2="305.25" y2="225.21"/><line class="cls-1" x1="319.49" y1="189.2" x2="251.2" y2="222.29"/><polyline class="cls-1" points="309.18 148.08 363.2 177.09 356.47 144.93 373.12 155.67 271.04 179.34 302.7 225.21"/><polyline class="cls-1" points="338.3 134.59 343.29 280.95 275.54 261.41 364.83 232.71 376.08 259.55 345.2 283.92 389.13 284.89 339.68 340.51 342.04 283.92"/><line class="cls-1" x1="305.25" y1="228.8" x2="343.29" y2="280.95"/><line class="cls-1" x1="277.47" y1="259.18" x2="304.14" y2="226.64"/><polyline class="cls-1" points="275.54 261.41 248.57 223.67 213.5 217.74 222.4 246.87 273.8 261.41 222.4 276"/><polyline class="cls-1" points="216.47 264.14 273.8 261.41 255.86 304.17"/><line class="cls-1" x1="222.4" y1="248.92" x2="282.04" y2="306.94"/><line class="cls-1" x1="234.84" y1="288.77" x2="341.27" y2="281.93"/><polyline class="cls-1" points="389.13 284.89 297.22 321.6 304.14 228.8"/><path class="cls-1" d="M403.81,520.71c-.25,1.7.91,35.53.91,35.53l20-22.12-96.85,33.63" transform="translate(-12.63 -235.82)"/><path class="cls-1" d="M356.87,519l19.43,65.67c-2.37,1.15,59.89-35.55,59.89-35.55l-26,42.8-6.86-34.45-28.43,28.7" transform="translate(-12.63 -235.82)"/><line class="cls-1" x1="392.09" y1="320.42" x2="275.54" y2="263.58"/><path class="cls-1" d="M404.72,557.42,455,568.12l3.7-26.42L437,583.88l21.71,11,36.46-29.67,1.51,19.46-40.54-14.73,15.32,38.32,8.83-10.42s3.05-58.15,3.19-59.34-23.78,3-23.78,3L483,597.79" transform="translate(-12.63 -235.82)"/><path class="cls-1" d="M452.37,570.76l31.06-32.31,18.31,19-5.11,7.36-2-31.83,41.24,15.24-32,7.22,3-29.74s44.78,12.29,43.84,11.42-54.06-5-54.06-5l8.89-9.42,27.27-5.93,36.12-7.92-13.75-32.09-19.24,5.93,35.68,27.42" transform="translate(-12.63 -235.82)"/><polyline class="cls-1" points="503.11 249.84 525.32 313.31 538.06 298.31 494.21 284.89 499.35 265.71 521.38 278.96 523.29 246.87 502.39 265.18"/><path class="cls-1" d="M578.5,479.72c.08-.15-41,33.52-41,33.52l17.65-36.48,27.31,13.86-75.62,30.09" transform="translate(-12.63 -235.82)"/><polyline class="cls-1" points="554.32 289.85 523.29 278.96 538.06 298.31 556.28 274.42"/></g><g id="Layer_2" data-name="Layer 2"><circle class="cls-2" cx="136.66" cy="212.72" r="2.96"/><circle class="cls-2" cx="143.65" cy="202.96" r="2.96"/><circle class="cls-2" cx="128.65" cy="202.96" r="2.96"/><circle class="cls-2" cx="133.65" cy="190.96" r="2.96"/><circle class="cls-2" cx="122.65" cy="180.96" r="2.96"/><circle class="cls-2" cx="111.65" cy="186.96" r="2.96"/><circle class="cls-2" cx="93.65" cy="173.96" r="2.96"/><circle class="cls-2" cx="118.65" cy="171.96" r="2.96"/><circle class="cls-2" cx="114.65" cy="161.96" r="2.96"/><circle class="cls-2" cx="109.65" cy="145.96" r="2.96"/><circle class="cls-2" cx="94.65" cy="153.96" r="2.96"/><circle class="cls-2" cx="99.65" cy="133.96" r="2.96"/><circle class="cls-2" cx="84.65" cy="138.96" r="2.96"/><circle class="cls-2" cx="76.65" cy="128.96" r="2.96"/><circle class="cls-2" cx="64.65" cy="129.96" r="2.96"/><circle class="cls-2" cx="89.65" cy="117.96" r="2.96"/><circle class="cls-2" cx="53.65" cy="121.96" r="2.96"/><circle class="cls-2" cx="55.65" cy="108.96" r="2.96"/><circle class="cls-2" cx="40.65" cy="109.96" r="2.96"/><circle class="cls-2" cx="50.65" cy="56.96" r="2.96"/><circle class="cls-2" cx="33.65" cy="69.96" r="2.96"/><circle class="cls-2" cx="47.65" cy="82.96" r="2.96"/><circle class="cls-2" cx="60.65" cy="70.96" r="2.96"/><circle class="cls-2" cx="59.65" cy="97.96" r="2.96"/><circle class="cls-2" cx="68.65" cy="85.96" r="2.96"/><circle class="cls-2" cx="81.65" cy="96.96" r="2.96"/><circle class="cls-2" cx="23.65" cy="52.96" r="2.96"/><circle class="cls-2" cx="17.65" cy="35.96" r="2.96"/><circle class="cls-2" cx="11.65" cy="21.96" r="2.96"/><circle class="cls-2" cx="3.65" cy="6.96" r="2.96"/><circle class="cls-2" cx="29.65" cy="2.96" r="2.96"/><circle class="cls-2" cx="44.65" cy="2.96" r="2.96"/><circle class="cls-2" cx="80.65" cy="17.96" r="2.96"/><circle class="cls-2" cx="115.65" cy="32.96" r="2.96"/><circle class="cls-2" cx="168.65" cy="32.96" r="2.96"/><circle class="cls-2" cx="168.65" cy="22.96" r="2.96"/><circle class="cls-2" cx="201.65" cy="22.96" r="2.96"/><circle class="cls-2" cx="222.65" cy="39.96" r="2.96"/><circle class="cls-2" cx="238.65" cy="57.96" r="2.96"/><circle class="cls-2" cx="242.65" cy="74.96" r="2.96"/><circle class="cls-2" cx="266.65" cy="82.96" r="2.96"/><circle class="cls-2" cx="285.65" cy="67.96" r="2.96"/><circle class="cls-2" cx="310.07" cy="80" r="2.96"/><circle class="cls-2" cx="327.39" cy="104.47" r="2.96"/><circle class="cls-2" cx="338.3" cy="132.71" r="2.96"/><circle class="cls-2" cx="356.47" cy="144" r="2.96"/><circle class="cls-2" cx="374.12" cy="155.67" r="2.96"/><circle class="cls-2" cx="365.22" cy="176.38" r="2.96"/><circle class="cls-2" cx="362.26" cy="205.74" r="2.96"/><circle class="cls-2" cx="365.22" cy="231.76" r="2.96"/><circle class="cls-2" cx="376.08" cy="258.45" r="2.96"/><circle class="cls-2" cx="389.66" cy="283.92" r="2.96"/><circle class="cls-2" cx="500.14" cy="267.11" r="2.96"/><circle class="cls-2" cx="494.21" cy="286.88" r="2.96"/><circle class="cls-2" cx="484" cy="296.31" r="2.96"/><circle class="cls-2" cx="472" cy="301.27" r="2.96"/><circle class="cls-2" cx="447.02" cy="305.6" r="2.96"/><circle class="cls-2" cx="425.97" cy="311.53" r="2.96"/><circle class="cls-2" cx="412.09" cy="298.31" r="2.96"/><circle class="cls-2" cx="122.65" cy="115" r="2.96"/><circle class="cls-2" cx="151.57" cy="146.96" r="2.96"/><circle class="cls-2" cx="172.66" cy="174.93" r="2.96"/><circle class="cls-2" cx="189.6" cy="194.51" r="2.96"/><circle class="cls-2" cx="213.5" cy="217.74" r="2.96"/><circle class="cls-2" cx="222.4" cy="246.87" r="2.96"/><circle class="cls-2" cx="216.47" cy="264.14" r="2.96"/><circle class="cls-2" cx="222.4" cy="276" r="2.96"/><circle class="cls-2" cx="233.65" cy="289.85" r="2.96"/><circle class="cls-2" cx="255.86" cy="305.6" r="2.96"/><circle class="cls-2" cx="282.04" cy="308.56" r="2.96"/><circle class="cls-2" cx="294.26" cy="323.39" r="2.96"/><circle class="cls-2" cx="313.83" cy="331.93" r="2.96"/><circle class="cls-2" cx="338.3" cy="341.41" r="2.96"/><circle class="cls-2" cx="362.26" cy="350.31" r="2.96"/><circle class="cls-2" cx="397.55" cy="356.05" r="2.96"/><circle class="cls-2" cx="423.01" cy="347.34" r="2.96"/><circle class="cls-2" cx="444.05" cy="359.01" r="2.96"/><circle class="cls-2" cx="458.77" cy="373.69" r="2.96"/><circle class="cls-2" cx="469.03" cy="361.98" r="2.96"/><circle class="cls-2" cx="484" cy="350.31" r="2.96"/><circle class="cls-2" cx="484" cy="328.96" r="2.96"/><circle class="cls-2" cx="489.93" cy="320.42" r="2.96"/><circle class="cls-2" cx="525.32" cy="314.49" r="2.96"/><circle class="cls-2" cx="538.06" cy="299.27" r="2.96"/><circle class="cls-2" cx="556.28" cy="289.85" r="2.96"/><circle class="cls-2" cx="556.28" cy="273.04" r="2.96"/><circle class="cls-2" cx="568.83" cy="254.8" r="2.96"/><circle class="cls-2" cx="566.87" cy="243.91" r="2.96"/><circle class="cls-2" cx="543.99" cy="240.16" r="2.96"/><circle class="cls-2" cx="522.35" cy="246.87" r="2.96"/><circle class="cls-2" cx="503.11" cy="249.84" r="2.96"/><circle class="cls-2" cx="112.68" cy="102.46" r="2.96"/><circle class="cls-2" cx="99.65" cy="88.93" r="2.96"/><circle class="cls-2" cx="84.65" cy="64.96" r="2.96"/><circle class="cls-2" cx="133.69" cy="127" r="2.96"/><circle class="cls-2" cx="79.61" cy="50" r="2.96"/><circle class="cls-2" cx="77.68" cy="35.93" r="2.96"/><circle class="cls-2" cx="59.65" cy="27.89" r="2.96"/><circle class="cls-2" cx="41.68" cy="17.96" r="2.96"/><circle class="cls-2" cx="44.68" cy="35.93" r="2.96"/><circle class="cls-2" cx="168.65" cy="95" r="2.96"/><circle class="cls-2" cx="168.65" cy="124.93" r="2.96"/><circle class="cls-2" cx="269.61" cy="179.34" r="2.96"/><circle class="cls-2" cx="307.1" cy="145.96" r="2.96"/><circle class="cls-2" cx="198.68" cy="166.59" r="2.96"/><circle class="cls-2" cx="238.65" cy="126" r="2.96"/><circle class="cls-2" cx="344.23" cy="281.93" r="2.96"/><circle class="cls-2" cx="248.57" cy="223.67" r="2.96"/><circle class="cls-2" cx="275.54" cy="261.41" r="2.96"/><circle class="cls-2" cx="304.14" cy="226.64" r="2.96"/><circle class="cls-2" cx="321.46" cy="188.09" r="2.96"/><circle class="cls-2" cx="392.09" cy="320.42" r="2.96"/><circle class="cls-2" cx="441.09" cy="332.31" r="2.96"/><circle class="cls-2" cx="522.35" cy="278.96" r="2.96"/></g></svg>