<svg width="1086" height="658" viewBox="0 0 1086 658" fill="none" xmlns="http://www.w3.org/2000/svg">
<path d="M856.363 104.996L870.26 96.4409L884.73 114.045L889.211 159.876L866.862 146.16L861.957 111.711L856.363 104.996Z" fill="black"/>
<path d="M856.363 104.996L870.26 96.4409L884.73 114.045L889.211 159.876L866.862 146.16L861.957 111.711L856.363 104.996Z" fill="black"/>
<path d="M898.354 80.5072L922.284 65.6357L992.014 108.604L1024.59 175.454L993.407 172.759L967.485 121.123L898.354 80.5072Z" fill="black"/>
<path d="M878.51 91.8315L892.928 83.1438L924.365 102.057L962.014 138.803L976.43 204.021L949.624 194.573L933.964 139.694L878.51 91.8315Z" fill="black"/>
<path d="M0.693589 423.001L665.937 21.4105L890.68 0.417041L1027.49 60.7252L1085.71 154.228L1045.76 156.276L1008.85 81.1361L929.855 56.1889L848.925 106.267L844.336 118.711L863.473 163.309L932.41 181.427L942.609 221.415L856.784 204.473L709.937 109.146L0.693592 657.5L0.693589 423.001Z" fill="black"/>
</svg>
