<svg width="1287" height="384" viewBox="0 0 1287 384" fill="none" xmlns="http://www.w3.org/2000/svg">
<path d="M191.246 216.236L200.053 218.137L220.814 234.61L193.762 277.06V293.533L150.355 296.7V287.197L191.246 216.236Z" fill="black"/>
<path d="M228.992 240.312L234.654 243.48V263.755L213.893 283.395V270.09L228.992 240.312Z" fill="black"/>
<path d="M154.129 343.585L156.645 383.5L195.02 354.989V338.516L154.129 343.585Z" fill="black"/>
<path d="M220.814 334.081L256.043 316.341L257.93 336.616L228.992 361.958L220.814 334.081Z" fill="black"/>
<path d="M290.014 299.868L310.145 289.731L312.662 301.769L335.939 313.173L337.826 346.119L293.789 316.341L290.014 299.868Z" fill="black"/>
<path d="M1286.5 0L392.557 128.17L260.447 159.848L206.973 169.986L133.369 164.917L0 201.031L25.793 230.809L128.965 197.229L200.053 212.435L237.799 240.312V266.922L206.973 296.7L152.242 302.403L142.805 338.516L217.668 330.913L356.07 262.487L403.252 221.305L1286.5 188.5V0Z" fill="black"/>
</svg>
